<?xml version="1.0" encoding="UTF-8"?>
<svg width="700pt" height="700pt" version="1.1" viewBox="0 0 700 700" xmlns="http://www.w3.org/2000/svg" xmlns:xlink="http://www.w3.org/1999/xlink">
 <defs>
  <symbol id="o" overflow="visible">
   <path d="m30.25-1.8125c-1.5625 0.8125-3.1875 1.4219-4.875 1.8281-1.6875 0.41406-3.4492 0.625-5.2812 0.625-5.4922 0-9.8398-1.5312-13.047-4.5938-3.1992-3.0703-4.7969-7.2266-4.7969-12.469 0-5.2578 1.5977-9.4219 4.7969-12.484 3.207-3.0703 7.5547-4.6094 13.047-4.6094 1.832 0 3.5938 0.21094 5.2812 0.625 1.6875 0.40625 3.3125 1.0156 4.875 1.8281v6.8125c-1.5742-1.0703-3.125-1.8594-4.6562-2.3594-1.5234-0.5-3.1328-0.75-4.8281-0.75-3.0234 0-5.4023 0.96875-7.1406 2.9062-1.7305 1.9375-2.5938 4.6172-2.5938 8.0312 0 3.3984 0.86328 6.0625 2.5938 8 1.7383 1.9375 4.1172 2.9062 7.1406 2.9062 1.6953 0 3.3047-0.25 4.8281-0.75 1.5312-0.5 3.082-1.2852 4.6562-2.3594z"/>
  </symbol>
  <symbol id="c" overflow="visible">
   <path d="m22.141-17.969c-0.69922-0.32031-1.3906-0.5625-2.0781-0.71875-0.67969-0.15625-1.3594-0.23438-2.0469-0.23438-2.0312 0-3.5938 0.65234-4.6875 1.9531-1.0938 1.3047-1.6406 3.168-1.6406 5.5938v11.375h-7.8906v-24.688h7.8906v4.0469c1.0078-1.6133 2.1719-2.7891 3.4844-3.5312 1.3203-0.75 2.8984-1.125 4.7344-1.125 0.26953 0 0.55469 0.015625 0.85938 0.046875 0.3125 0.023438 0.75781 0.070312 1.3438 0.14062z"/>
  </symbol>
  <symbol id="b" overflow="visible">
   <path d="m28.438-12.406v2.2344h-18.453c0.19531 1.8555 0.86719 3.2461 2.0156 4.1719 1.1445 0.92969 2.7422 1.3906 4.7969 1.3906 1.6641 0 3.3672-0.24219 5.1094-0.73438 1.7383-0.48828 3.5312-1.2344 5.375-2.2344v6.0781c-1.875 0.71094-3.7461 1.2422-5.6094 1.5938-1.8672 0.36328-3.7305 0.54688-5.5938 0.54688-4.4688 0-7.9453-1.1328-10.422-3.4062-2.4805-2.2695-3.7188-5.457-3.7188-9.5625 0-4.0195 1.2109-7.1875 3.6406-9.5 2.4375-2.3125 5.7852-3.4688 10.047-3.4688 3.8828 0 6.9883 1.1719 9.3125 3.5156 2.332 2.3359 3.5 5.4609 3.5 9.375zm-8.1094-2.625c0-1.5-0.4375-2.707-1.3125-3.625-0.875-0.92578-2.0156-1.3906-3.4219-1.3906-1.5312 0-2.7773 0.43359-3.7344 1.2969-0.96094 0.85547-1.5547 2.0938-1.7812 3.7188z"/>
  </symbol>
  <symbol id="a" overflow="visible">
   <path d="m14.859-11.109c-1.6484 0-2.8867 0.28125-3.7188 0.84375-0.82422 0.55469-1.2344 1.3711-1.2344 2.4531 0 1 0.33203 1.7891 1 2.3594 0.66406 0.5625 1.5938 0.84375 2.7812 0.84375 1.4883 0 2.7383-0.53125 3.75-1.5938 1.0195-1.0703 1.5312-2.4062 1.5312-4v-0.90625zm12.062-2.9844v14.094h-7.9531v-3.6562c-1.0625 1.5-2.2578 2.5938-3.5781 3.2812-1.3242 0.67578-2.9336 1.0156-4.8281 1.0156-2.5625 0-4.6406-0.74219-6.2344-2.2344-1.5938-1.5-2.3906-3.4375-2.3906-5.8125 0-2.8945 0.99219-5.0195 2.9844-6.375 2-1.3516 5.1289-2.0312 9.3906-2.0312h4.6562v-0.60938c0-1.25-0.49609-2.1641-1.4844-2.75-0.99219-0.58203-2.5273-0.875-4.6094-0.875-1.6875 0-3.2617 0.17188-4.7188 0.51562-1.4609 0.33594-2.8125 0.83984-4.0625 1.5156v-6.0156c1.6953-0.41406 3.3945-0.72656 5.0938-0.9375 1.707-0.21875 3.4141-0.32812 5.125-0.32812 4.4453 0 7.6602 0.88281 9.6406 2.6406 1.9766 1.7617 2.9688 4.6172 2.9688 8.5625z"/>
  </symbol>
  <symbol id="h" overflow="visible">
   <path d="m12.406-31.703v7.0156h8.1406v5.6406h-8.1406v10.469c0 1.1484 0.22656 1.9219 0.6875 2.3281 0.45703 0.40625 1.3633 0.60938 2.7188 0.60938h4.0469v5.6406h-6.7656c-3.1172 0-5.3242-0.64844-6.625-1.9531-1.3047-1.3008-1.9531-3.5078-1.9531-6.625v-10.469h-3.9219v-5.6406h3.9219v-7.0156z"/>
  </symbol>
  <symbol id="g" overflow="visible">
   <path d="m20.594-21.078v-13.234h7.9375v34.312h-7.9375v-3.5781c-1.0859 1.4609-2.2812 2.5273-3.5938 3.2031s-2.8281 1.0156-4.5469 1.0156c-3.043 0-5.543-1.207-7.5-3.625-1.9492-2.4141-2.9219-5.5312-2.9219-9.3438 0-3.8008 0.97266-6.9102 2.9219-9.3281 1.957-2.4258 4.457-3.6406 7.5-3.6406 1.707 0 3.2188 0.34375 4.5312 1.0312 1.3203 0.6875 2.5234 1.75 3.6094 3.1875zm-5.2031 15.984c1.6875 0 2.9727-0.61328 3.8594-1.8438 0.89453-1.2383 1.3438-3.0352 1.3438-5.3906 0-2.3516-0.44922-4.1445-1.3438-5.375-0.88672-1.2383-2.1719-1.8594-3.8594-1.8594-1.6797 0-2.9648 0.62109-3.8594 1.8594-0.88672 1.2305-1.3281 3.0234-1.3281 5.375 0 2.3555 0.44141 4.1523 1.3281 5.3906 0.89453 1.2305 2.1797 1.8438 3.8594 1.8438z"/>
  </symbol>
  <symbol id="f" overflow="visible">
   <path d="m16.938-5.0938c1.6875 0 2.9727-0.61328 3.8594-1.8438 0.89453-1.2383 1.3438-3.0352 1.3438-5.3906 0-2.3516-0.44922-4.1445-1.3438-5.375-0.88672-1.2383-2.1719-1.8594-3.8594-1.8594-1.6992 0-3 0.625-3.9062 1.875-0.89844 1.2422-1.3438 3.0273-1.3438 5.3594 0 2.3438 0.44531 4.1367 1.3438 5.375 0.90625 1.2422 2.207 1.8594 3.9062 1.8594zm-5.25-15.984c1.082-1.4375 2.2852-2.5 3.6094-3.1875 1.3203-0.6875 2.8438-1.0312 4.5625-1.0312 3.0508 0 5.5508 1.2148 7.5 3.6406 1.957 2.418 2.9375 5.5273 2.9375 9.3281 0 3.8125-0.98047 6.9297-2.9375 9.3438-1.9492 2.418-4.4492 3.625-7.5 3.625-1.7188 0-3.2422-0.33984-4.5625-1.0156-1.3242-0.6875-2.5273-1.7539-3.6094-3.2031v3.5781h-7.8906v-34.312h7.8906z"/>
  </symbol>
  <symbol id="e" overflow="visible">
   <path d="m0.54688-24.688h7.8906l6.6406 16.75 5.6406-16.75h7.9062l-10.391 27.031c-1.043 2.7383-2.2617 4.6562-3.6562 5.75-1.3867 1.1016-3.2188 1.6562-5.5 1.6562h-4.5625v-5.1875h2.4688c1.3438 0 2.3164-0.21484 2.9219-0.64062 0.61328-0.42969 1.0859-1.1953 1.4219-2.2969l0.21875-0.67188z"/>
  </symbol>
  <symbol id="d" overflow="visible">
   <path d="m27.047-31.875v6.9531c-1.8047-0.80078-3.5625-1.4062-5.2812-1.8125-1.7188-0.41406-3.3438-0.625-4.875-0.625-2.0312 0-3.5312 0.28125-4.5 0.84375-0.96875 0.55469-1.4531 1.418-1.4531 2.5938 0 0.88672 0.32812 1.5742 0.98438 2.0625 0.65625 0.49219 1.8438 0.91406 3.5625 1.2656l3.6094 0.73438c3.6562 0.73047 6.2539 1.8438 7.7969 3.3438 1.5508 1.5 2.3281 3.6328 2.3281 6.3906 0 3.6367-1.0781 6.3398-3.2344 8.1094-2.1562 1.7734-5.4453 2.6562-9.8594 2.6562-2.0938 0-4.1953-0.19922-6.2969-0.59375-2.0938-0.39453-4.1953-0.98438-6.2969-1.7656v-7.1719c2.1016 1.125 4.1328 1.9688 6.0938 2.5312 1.957 0.5625 3.8477 0.84375 5.6719 0.84375 1.8516 0 3.2695-0.30469 4.25-0.92188 0.98828-0.61328 1.4844-1.4922 1.4844-2.6406 0-1.0312-0.33594-1.8203-1-2.375-0.66797-0.5625-2-1.0664-4-1.5156l-3.2812-0.71875c-3.293-0.70703-5.7031-1.832-7.2344-3.375-1.5234-1.5391-2.2812-3.625-2.2812-6.25 0-3.2695 1.0547-5.7852 3.1719-7.5469 2.125-1.7695 5.1719-2.6562 9.1406-2.6562 1.8008 0 3.6562 0.13672 5.5625 0.40625 1.9141 0.27344 3.8945 0.68359 5.9375 1.2344z"/>
  </symbol>
  <symbol id="n" overflow="visible">
   <path d="m28.625-15.031v15.031h-7.9375v-11.469c0-2.1562-0.054688-3.6328-0.15625-4.4375-0.09375-0.8125-0.25781-1.4102-0.48438-1.7969-0.3125-0.51953-0.73438-0.92188-1.2656-1.2031-0.53125-0.28906-1.1328-0.4375-1.7969-0.4375-1.6484 0-2.9453 0.64062-3.8906 1.9219-0.9375 1.2734-1.4062 3.0273-1.4062 5.2656v12.156h-7.8906v-34.312h7.8906v13.234c1.1875-1.4375 2.4453-2.5 3.7812-3.1875 1.3438-0.6875 2.8203-1.0312 4.4375-1.0312 2.8516 0 5.0195 0.875 6.5 2.625 1.4766 1.75 2.2188 4.2969 2.2188 7.6406z"/>
  </symbol>
  <symbol id="m" overflow="visible">
   <path d="m3.7969-24.688h7.8906v24.688h-7.8906zm0-9.625h7.8906v6.4375h-7.8906z"/>
  </symbol>
  <symbol id="l" overflow="visible">
   <path d="m2.5781-24.688h21.547v5.5l-13.016 13.547h13.016v5.6406h-22.094v-5.5156l13-13.531h-12.453z"/>
  </symbol>
  <symbol id="k" overflow="visible">
   <path d="m4.1406-32.922h8.5v29.719c0 4.1016-1.1172 7.1719-3.3438 9.2031-2.2305 2.0312-5.6016 3.0469-10.109 3.0469h-1.7188v-6.4219h1.3125c1.7695 0 3.1016-0.49609 4-1.4844 0.90625-0.98047 1.3594-2.4258 1.3594-4.3438z"/>
  </symbol>
  <symbol id="j" overflow="visible">
   <path d="m26.672-20.594c1-1.5312 2.1875-2.6953 3.5625-3.5 1.375-0.80078 2.8828-1.2031 4.5312-1.2031 2.8438 0 5.0039 0.875 6.4844 2.625 1.4883 1.75 2.2344 4.2969 2.2344 7.6406v15.031h-7.9375v-12.875c0.007813-0.1875 0.019531-0.38281 0.03125-0.59375 0.007813-0.20703 0.015625-0.50391 0.015625-0.89062 0-1.75-0.26172-3.0156-0.78125-3.7969-0.51172-0.78906-1.3398-1.1875-2.4844-1.1875-1.5 0-2.6641 0.62109-3.4844 1.8594-0.8125 1.2422-1.2344 3.0273-1.2656 5.3594v12.125h-7.9375v-12.875c0-2.7383-0.23438-4.5-0.70312-5.2812-0.46875-0.78906-1.3086-1.1875-2.5156-1.1875-1.5117 0-2.6797 0.625-3.5 1.875-0.82422 1.2422-1.2344 3.0117-1.2344 5.3125v12.156h-7.9375v-24.688h7.9375v3.6094c0.96875-1.3945 2.0781-2.4453 3.3281-3.1562 1.2578-0.70703 2.6484-1.0625 4.1719-1.0625 1.6953 0 3.2031 0.41406 4.5156 1.2344 1.3125 0.82422 2.3008 1.9805 2.9688 3.4688z"/>
  </symbol>
  <symbol id="i" overflow="visible">
   <path d="m3.7969-34.312h7.8906v34.312h-7.8906z"/>
  </symbol>
 </defs>
 <g>
  <path d="m449.36 496.77h18.066v54.195h-18.066z"/>
  <path d="m232.58 496.77h18.066v54.195h-18.066z"/>
  <path d="m196.45 541.93h307.1v18.066h-307.1z"/>
  <path d="m584.84 505.8h-469.68c-11.977 0-23.465-4.7578-31.934-13.227s-13.227-19.957-13.227-31.934v-289.03c0-11.977 4.7578-23.465 13.227-31.934s19.957-13.227 31.934-13.227h81.289v18.066l-81.289-0.003906c-7.1836 0-14.078 2.8555-19.16 7.9375s-7.9336 11.973-7.9336 19.16v289.03c0 7.1875 2.8516 14.078 7.9336 19.16 5.082 5.082 11.977 7.9375 19.16 7.9375h469.68c7.1836 0 14.078-2.8555 19.16-7.9375 5.082-5.082 7.9336-11.973 7.9336-19.16v-289.03c0-7.1875-2.8516-14.078-7.9336-19.16s-11.977-7.9375-19.16-7.9375h-18.066v-18.062h18.066c11.977 0 23.465 4.7578 31.934 13.227s13.227 19.957 13.227 31.934v289.03c0 11.977-4.7578 23.465-13.227 31.934s-19.957 13.227-31.934 13.227z"/>
  <path d="m539.68 451.61h18.066v18.066h-18.066z"/>
  <path d="m575.8 451.61h18.066v18.066h-18.066z"/>
  <path d="m503.55 451.61h18.066v18.066h-18.066z"/>
  <path d="m451.52 451.61h-372.49v-18.066h368.16l36.129-18.062h137.65v18.062h-133.32z"/>
  <path d="m440.32 270.97c-27.691 0.066406-54.727-8.418-77.406-24.297l10.297-14.812c28.605 19.797 64.516 25.891 98.051 16.637s61.242-32.902 75.648-64.566c14.406-31.664 14.027-68.09-1.0312-99.449-15.059-31.359-43.246-54.43-76.969-62.984-33.719-8.5586-69.496-1.7227-97.688 18.664-28.188 20.383-45.887 52.219-48.324 86.922l-18.066-1.2656 0.003906 0.003906c2.5195-35.266 18.727-68.148 45.16-91.625 26.43-23.48 60.992-35.699 96.309-34.047 35.316 1.6523 68.586 17.043 92.711 42.887 24.125 25.848 37.191 60.098 36.41 95.441-0.78125 35.348-15.348 68.988-40.594 93.742-25.242 24.754-59.16 38.66-94.512 38.75z"/>
  <path d="m386.13 234.84h-252.9c-7.6758 0.14453-15.051-2.9688-20.297-8.5703-5.2461-5.6016-7.8711-13.168-7.2227-20.816 0.64844-7.6484 4.5117-14.66 10.629-19.297l105.32-82.734v-0.003906c10.926-8.1641 24.203-12.574 37.844-12.574s26.918 4.4102 37.848 12.574l105.32 82.734-0.003906 0.003906c6.082 4.6133 9.9336 11.574 10.613 19.176 0.67969 7.6016-1.8789 15.137-7.0469 20.754-5.1641 5.6172-12.461 8.7969-20.094 8.7539zm-126.45-126.45c-9.7891-0.12891-19.34 3.0547-27.094 9.0312l-104.87 82.918c-2.2891 1.7617-3.6016 4.5156-3.5195 7.4062 0 2.3945 0.94922 4.6914 2.6445 6.3867 1.6914 1.6953 3.9922 2.6445 6.3867 2.6445h252.9c2.3945 0 4.6914-0.94922 6.3867-2.6445 1.6953-1.6953 2.6445-3.9922 2.6445-6.3867 0.023438-2.8281-1.2812-5.5-3.5195-7.2266l-104.87-83.098c-7.7383-6.0078-17.297-9.1953-27.098-9.0312z"/>
  <path d="m377.1 397.42h-234.84v-171.61h18.066v153.55h198.71v-153.55h18.066z"/>
  <path d="m304.84 388.39h-18.066v-99.355h-54.191v99.355h-18.066v-117.42h90.324z"/>
  <path d="m395.16 379.36h198.71v18.066h-198.71z"/>
  <path d="m413.23 307.1h18.066v81.289h-18.066z"/>
  <path d="m449.36 343.23h18.066v45.16h-18.066z"/>
  <path d="m485.48 325.16h18.066v63.227h-18.066z"/>
  <path d="m521.61 307.1h18.066v81.289h-18.066z"/>
  <path d="m557.74 343.23h18.066v45.16h-18.066z"/>
  <path d="m431.29 9.0312h18.066v126.45h-18.066z"/>
  <path d="m550.97 197.08-110.64-51.664-68.465 31.977-7.5898-16.348 76.055-35.5 118.32 55.188z"/>
 </g>
</svg>
